HIERARCHY
ROOT Hips
{
	OFFSET 0.000000 8.830580 0.000000
	CHANNELS 6 Xposition Yposition Zposition Zrotation Yrotation Xrotation 
	JOINT Spine
	{
		OFFSET 0.000000 0.010000 0.000000
		CHANNELS 3 Zrotation Yrotation Xrotation
		JOINT Spine1
		{
			OFFSET 0.000000 2.459130 0.000000
			CHANNELS 3 Zrotation Yrotation Xrotation
			JOINT Neck
			{
				OFFSET 0.000000 2.484630 0.000000
				CHANNELS 3 Zrotation Yrotation Xrotation
				JOINT Head_virtual
				{
					OFFSET 0.000000 0.000000 0.000000
					CHANNELS 3 Zrotation Yrotation Xrotation
					JOINT Head
					{
						OFFSET 0.000000 0.927525 0.000000
						CHANNELS 3 Zrotation Yrotation Xrotation
						End Site
						{
							OFFSET 0.000000 0.000000 0.000000
						}
					}
				}
				JOINT LeftUpArm_virtual
				{
					OFFSET 0.000000 0.000000 0.000000
					CHANNELS 3 Zrotation Yrotation Xrotation
					JOINT LeftUpArm
					{
						OFFSET 1.248820 0.000000 0.000000
						CHANNELS 3 Zrotation Yrotation Xrotation
						JOINT LeftForeArm
						{
							OFFSET 2.597580 0.000000 0.000000
							CHANNELS 3 Zrotation Yrotation Xrotation
							JOINT LeftHand
							{
								OFFSET 2.455420 0.000000 0.000000
								CHANNELS 3 Zrotation Yrotation Xrotation
								End Site
								{
									OFFSET 0.000000 0.000000 0.000000
								}
							}
						}
					}
				}
				JOINT RightUpArm_virtual
				{
					OFFSET -0.000000 -0.000000 -0.000000
					CHANNELS 3 Zrotation Yrotation Xrotation
					JOINT RightUpArm
					{
						OFFSET -1.248820 -0.000000 -0.000000
						CHANNELS 3 Zrotation Yrotation Xrotation
						JOINT RightForeArm
						{
							OFFSET -2.597580 -0.000000 -0.000000
							CHANNELS 3 Zrotation Yrotation Xrotation
							JOINT RightHand
							{
								OFFSET -2.455420 -0.000000 -0.000000
								CHANNELS 3 Zrotation Yrotation Xrotation
								End Site
								{
									OFFSET 0.000000 0.000000 0.000000
								}
							}
						}
					}
				}
			}
		}
	}
	JOINT LeftUpLeg
	{
		OFFSET 1.271939 0.000000 0.000000
		CHANNELS 3 Zrotation Yrotation Xrotation
		JOINT LeftLowLeg
		{
			OFFSET 0.000000 -4.342910 0.000000
			CHANNELS 3 Zrotation Yrotation Xrotation
			JOINT LeftFoot
			{
				OFFSET 0.000000 -4.487670 0.000000
				CHANNELS 3 Zrotation Yrotation Xrotation
				JOINT LeftToeBase
				{
					OFFSET 0.000000 0.000000 1.515070
					CHANNELS 3 Zrotation Yrotation Xrotation
					End Site
					{
						OFFSET 0.000000 0.000000 0.000000
					}
				}
			}
		}
	}
	JOINT RightUpLeg
	{
		OFFSET -1.271939 0.000000 0.000000
		CHANNELS 3 Zrotation Yrotation Xrotation
		JOINT RightLowLeg
		{
			OFFSET 0.000000 -4.342910 0.000000
			CHANNELS 3 Zrotation Yrotation Xrotation
			JOINT RightFoot
			{
				OFFSET 0.000000 -4.487670 0.000000
				CHANNELS 3 Zrotation Yrotation Xrotation
				JOINT RightToeBase
				{
					OFFSET 0.000000 0.000000 1.515070
					CHANNELS 3 Zrotation Yrotation Xrotation
					End Site
					{
						OFFSET 0.000000 0.000000 0.000000
					}
				}
			}
		}
	}
}
MOTION
Frames: 16
Frame Time: 0.041667
-15.577326 8.957696 35.373939 -176.621681 -8.607839 -163.065667 5.914136 0.107039 -28.976055 0.185346 -0.349252 11.714421 0.000000 0.000000 0.000000 4.724043 4.405061 -12.196600 -13.798756 -9.247819 -81.384024 -30.364700 -0.276062 9.950530 -44.641701 -5.530260 11.191986 0.000000 -9.674760 0.000000 3.094930 10.678300 27.004900 31.463600 -2.081650 4.609440 41.653702 4.499280 16.516500 0.000000 15.352200 0.000000 -0.611797 -5.697470 10.509100 3.504527 -22.620350 -12.469163 0.000000 0.000000 5.358240 0.911380 24.134402 -4.212939 0.000000 0.000000 -11.240420 2.420112 31.917989 -12.996401 0.000000 0.000000 2.461400 0.898024 -29.884903 3.479658 0.000000 0.000000 -17.115530 
-15.576967 8.957782 35.385568 -176.635930 -8.895017 -163.161079 5.905397 0.038620 -28.893007 0.157743 -0.405841 11.419691 0.000000 0.000000 0.000000 4.594860 4.388920 -11.730714 -13.925043 -9.222527 -81.057415 -30.571301 -0.410112 10.179200 -44.019699 -6.587620 11.795013 0.000000 -10.776800 0.000000 3.761640 10.971700 26.214300 31.525000 -1.971070 4.756300 41.485600 5.189880 16.759600 0.000000 15.468600 0.000000 -0.679135 -5.639910 9.926700 3.570341 -22.820309 -12.563264 0.000000 0.000000 5.475260 0.848796 24.019183 -4.221196 0.000000 0.000000 -11.240160 2.511360 31.644741 -12.951946 0.000000 0.000000 2.494920 0.944682 -29.887765 3.446640 0.000000 0.000000 -17.124600 
-15.578342 8.958367 35.390084 -176.629711 -8.879425 -163.146889 5.898061 0.169411 -29.186740 0.127812 -0.266345 11.513726 0.000000 0.000000 0.000000 4.461379 4.387573 -11.386923 -14.097251 -9.109384 -80.586489 -30.688000 -0.673622 10.323800 -43.486099 -7.641940 12.479004 0.000000 -11.845700 0.000000 4.626980 10.640900 25.892900 31.546301 -1.862180 4.636160 41.367001 5.774290 17.160500 0.000000 15.663200 0.000000 -0.700015 -5.735450 10.072600 3.552879 -22.718597 -12.561263 0.000000 0.000000 5.399340 0.930688 23.976018 -4.138206 0.000000 0.000000 -11.241500 2.451825 31.728853 -13.027847 0.000000 0.000000 2.521510 1.006079 -29.929129 3.438954 0.000000 0.000000 -17.140180 
-15.578193 8.958748 35.400685 -176.649241 -9.126265 -163.232533 5.884740 0.124334 -29.186576 0.066989 -0.296542 11.313654 0.000000 0.000000 0.000000 4.356620 4.457913 -10.905176 -14.282493 -8.947253 -80.168648 -30.899099 -0.862782 10.469500 -42.812801 -8.632740 12.984009 0.000000 -13.021000 0.000000 5.456340 10.194400 25.489401 31.645201 -1.757080 4.759480 41.175800 6.468200 17.669300 0.000000 15.844800 0.000000 -0.983817 -5.659960 9.968210 3.606960 -22.932394 -12.628523 0.000000 0.000000 5.471530 0.892648 23.916658 -4.114411 0.000000 0.000000 -11.236380 2.515008 31.523740 -12.994046 0.000000 0.000000 2.560510 1.057468 -29.959570 3.397629 0.000000 0.000000 -17.115150 
-15.578964 8.959080 35.407658 -176.661762 -9.302797 -163.302415 5.872412 0.127829 -29.270679 -0.009561 -0.283716 11.182339 0.000000 0.000000 0.000000 4.282916 4.552969 -10.453979 -14.389982 -8.731904 -79.683566 -31.073999 -1.061760 10.642000 -42.169201 -9.628150 13.117004 0.000000 -14.263400 0.000000 6.216570 9.728780 25.053600 31.642799 -1.650030 4.814250 41.209599 7.210710 17.418100 0.000000 15.762300 0.000000 -0.763964 -5.505590 10.975000 3.638295 -23.105181 -12.640398 0.000000 0.000000 5.473980 0.887088 23.908846 -4.070170 0.000000 0.000000 -11.230120 2.552518 31.418760 -12.966951 0.000000 0.000000 2.598130 1.114320 -30.014238 3.353980 0.000000 0.000000 -17.106420 
-15.581330 8.959589 35.416186 -176.675338 -9.529734 -163.413152 5.889543 0.161265 -29.337528 -0.164588 -0.304479 11.117659 0.000000 0.000000 0.000000 4.129872 4.743030 -9.997189 -14.380525 -8.482658 -79.274769 -31.215799 -1.296440 10.811600 -41.530998 -10.619100 13.217987 0.000000 -15.596900 0.000000 6.940800 9.300240 24.373400 31.703400 -1.551860 4.787950 41.132500 7.827680 17.841801 0.000000 15.969900 0.000000 -0.934381 -5.473160 11.160000 3.660827 -23.327244 -12.648658 0.000000 0.000000 5.521410 0.907132 23.903087 -4.011774 0.000000 0.000000 -11.235060 2.661998 31.064879 -12.850260 0.000000 0.000000 2.585900 1.147281 -29.888237 3.354343 0.000000 0.000000 -17.115920 
-15.582432 8.960561 35.420652 -176.673698 -9.652610 -163.598996 5.905775 0.226265 -29.398252 -0.356469 -0.307506 11.120862 0.000000 0.000000 0.000000 4.145383 4.916346 -9.581236 -14.465324 -8.156875 -78.792864 -31.234100 -1.501410 10.909000 -41.029701 -11.609900 13.022003 0.000000 -16.789000 0.000000 7.462230 8.731220 23.832399 31.776300 -1.402110 4.874240 41.057598 8.412700 18.207399 0.000000 16.230900 0.000000 -1.048560 -5.292260 11.241000 3.625191 -23.438847 -12.479603 0.000000 0.000000 5.473650 0.916553 23.880214 -3.942358 0.000000 0.000000 -11.240310 2.872737 30.643385 -12.595582 0.000000 0.000000 2.541360 1.180926 -29.648197 3.399603 0.000000 0.000000 -17.198780 
-15.584163 8.961022 35.426968 -176.679051 -9.870258 -163.664938 5.883424 0.181800 -29.587864 -0.397394 -0.297446 11.186153 0.000000 0.000000 0.000000 4.030106 5.111243 -9.236388 -14.429418 -7.861194 -78.325489 -31.260599 -1.720300 10.987900 -40.609200 -12.568000 12.981995 0.000000 -18.099600 0.000000 8.175370 8.277860 23.096500 31.735701 -1.318020 4.878240 41.040401 8.994280 18.554100 0.000000 16.598900 0.000000 -1.355020 -4.889440 9.897090 3.672628 -23.637165 -12.491177 0.000000 0.000000 5.460690 0.897665 23.844079 -3.902646 0.000000 0.000000 -11.235250 2.934251 30.460209 -12.558138 0.000000 0.000000 2.575870 1.208001 -29.676911 3.370523 0.000000 0.000000 -17.182130 
-15.586650 8.960997 35.436644 -176.668346 -10.186564 -163.619954 6.014970 0.243981 -29.415094 -0.799537 -0.537994 10.437765 0.000000 0.000000 0.000000 3.979814 5.445259 -8.455212 -14.343040 -7.540674 -78.092201 -31.225901 -1.579790 11.205800 -40.138302 -13.446800 12.864014 0.000000 -19.431999 0.000000 8.860790 7.982150 22.606199 31.965900 -1.272350 5.312110 40.808998 9.498650 19.194201 0.000000 17.087700 0.000000 -2.027470 -4.243380 7.635020 3.839940 -23.998010 -12.735464 0.000000 0.000000 5.565730 0.826506 23.865641 -3.922551 0.000000 0.000000 -11.207200 2.896803 30.417902 -12.727661 0.000000 0.000000 2.687100 1.360622 -29.880248 3.245850 0.000000 0.000000 -17.164100 
-15.587167 8.961808 35.443318 -176.671259 -10.210993 -163.928628 5.994952 0.355086 -29.165415 -0.957830 -0.495582 10.168485 0.000000 0.000000 0.000000 4.019901 5.648319 -7.850238 -14.219715 -7.290023 -77.781095 -31.132200 -1.724350 11.355300 -39.889099 -14.269100 12.597992 0.000000 -20.671900 0.000000 9.470660 7.566760 21.594900 32.034401 -1.198690 5.510520 40.723801 9.931310 19.378599 0.000000 17.572201 0.000000 -2.043670 -4.171670 7.814300 3.726898 -24.083109 -12.426402 0.000000 0.000000 5.515140 0.844390 23.894734 -3.853626 0.000000 0.000000 -11.205330 3.042497 30.392122 -12.465005 0.000000 0.000000 2.779110 1.423358 -29.882079 3.219949 0.000000 0.000000 -17.191600 
-15.587902 8.963030 35.450113 -176.674057 -10.355943 -164.061818 5.948176 0.308836 -29.218765 -0.943580 -0.461422 10.182534 0.000000 0.000000 0.000000 3.869799 5.868718 -7.443268 -14.012109 -7.083589 -77.489882 -31.064501 -1.874650 11.318700 -39.749500 -15.088200 12.346985 0.000000 -21.775900 0.000000 9.959170 7.220160 20.956200 32.029701 -1.149020 5.528350 40.561001 10.317800 20.135200 0.000000 18.245100 0.000000 -2.381000 -4.089190 7.144770 3.733389 -24.263745 -12.362119 0.000000 0.000000 5.511320 0.825276 23.910488 -3.789972 0.000000 0.000000 -11.211200 3.133435 30.223001 -12.372960 0.000000 0.000000 2.837290 1.407999 -29.868144 3.242341 0.000000 0.000000 -17.203440 
-15.588871 8.964286 35.458921 -176.671096 -10.447152 -164.184692 5.890994 0.303153 -29.208748 -0.877859 -0.383010 10.108128 0.000000 0.000000 0.000000 3.743610 6.026191 -7.003710 -13.788000 -6.959171 -77.233573 -31.030001 -2.100810 11.278600 -39.665298 -15.745300 12.114990 0.000000 -22.833200 0.000000 10.396800 6.917180 20.711399 32.027100 -1.146780 5.655810 40.415798 10.803200 19.797400 0.000000 18.959900 0.000000 -1.736350 -4.811020 7.642990 3.727564 -24.357919 -12.325816 0.000000 0.000000 5.540650 0.832296 23.899204 -3.732525 0.000000 0.000000 -11.199310 3.168512 30.216619 -12.346532 0.000000 0.000000 2.938640 1.458869 -29.939893 3.229786 0.000000 0.000000 -17.194880 
-15.587850 8.965332 35.472362 -176.659221 -10.318077 -164.274438 5.797046 0.354312 -29.059109 -0.736278 -0.219934 9.869463 0.000000 0.000000 0.000000 3.627467 6.213793 -6.469656 -13.594468 -6.851333 -77.101748 -31.063900 -2.233960 11.333700 -39.546101 -16.405199 11.881012 0.000000 -23.858601 0.000000 10.798600 6.782650 20.636101 31.977900 -1.150260 5.773740 40.325802 11.175900 20.360500 0.000000 19.384600 0.000000 -2.182730 -4.278050 7.495250 3.673676 -24.170817 -12.311143 0.000000 0.000000 5.583100 0.795638 23.804985 -3.709801 0.000000 0.000000 -11.216020 3.095943 30.442441 -12.476323 0.000000 0.000000 3.144060 1.649060 -29.973645 3.143579 0.000000 0.000000 -17.200190 
-15.589877 8.966505 35.478581 -176.656645 -10.477078 -164.426838 5.754478 0.281029 -29.053882 -0.669027 -0.210964 9.844638 0.000000 0.000000 0.000000 3.593533 6.317241 -6.067047 -13.477918 -6.738298 -76.860451 -31.026800 -2.372680 11.289000 -39.558800 -16.928801 11.746002 0.000000 -24.783899 0.000000 11.173000 6.513240 20.816999 31.921900 -1.127390 5.714070 40.266899 11.330600 20.930799 0.000000 19.978100 0.000000 -2.512320 -4.091220 7.334880 3.674136 -24.365212 -12.251147 0.000000 0.000000 5.630770 0.771340 23.810067 -3.676816 0.000000 0.000000 -11.204760 3.195869 30.284840 -12.325651 0.000000 0.000000 3.139360 1.632091 -29.981887 3.187496 0.000000 0.000000 -17.228150 
-15.592105 8.967584 35.483960 -176.656574 -10.654734 -164.548554 5.720425 0.188098 -29.072372 -0.620778 -0.229126 9.799479 0.000000 0.000000 0.000000 3.563775 6.437573 -5.620846 -13.385442 -6.619293 -76.651646 -30.984301 -2.471910 11.293400 -39.591499 -17.367701 11.640991 0.000000 -25.684401 0.000000 11.435100 6.417750 20.749599 31.848700 -1.116300 5.784050 40.260200 11.543800 21.299999 0.000000 20.482500 0.000000 -2.706310 -3.994010 7.040010 3.679401 -24.525073 -12.221358 0.000000 0.000000 5.684430 0.768439 23.776639 -3.633346 0.000000 0.000000 -11.214650 3.289819 30.091494 -12.194955 0.000000 0.000000 3.125930 1.619451 -29.976789 3.220593 0.000000 0.000000 -17.225620 
-15.593380 8.968508 35.491426 -176.657039 -10.709228 -164.650683 5.693261 0.153154 -29.046914 -0.604754 -0.222732 9.738424 0.000000 0.000000 0.000000 3.550254 6.551165 -5.216863 -13.298487 -6.502563 -76.464495 -30.929399 -2.533010 11.281700 -39.668301 -17.739799 11.591003 0.000000 -26.413099 0.000000 11.821600 6.296820 21.005501 31.810301 -1.110560 5.816050 40.265400 11.691100 21.567101 0.000000 20.976000 0.000000 -2.811810 -3.892030 6.957680 3.652412 -24.558363 -12.186566 0.000000 0.000000 5.717270 0.752270 23.734805 -3.598629 0.000000 0.000000 -11.215490 3.319723 30.035618 -12.147651 0.000000 0.000000 3.171010 1.674958 -29.965206 3.212018 0.000000 0.000000 -17.209860 
